# xmcd CD database file
#
# Track frame offsets:
#	150
#	16445
#	29110
#	43415
#	63112
#	83687
#	96280
#	111507
#	127050
#	143325
#	161570
#	173095
#
# Disc length: 2556 seconds
#
# Revision: 1
# Processed by: cddbd v1.4PL0 Copyright (c) Steve Scherf et al.
# Submitted via: CDex 1.40Beta9
#
DISCID=a309fa0c
DTITLE=Rosita - Runaway Train
DYEAR=2001
DGENRE=Country
TTITLE0=Believe Me
TTITLE1=Big Big Love
TTITLE2=Rose Garden
TTITLE3=Runaway Train
TTITLE4=Dare To Dream
TTITLE5=Wrong Night
TTITLE6=Down At The Twist And Shout
TTITLE7=Tonight I Know I Will
TTITLE8=Human Highway
TTITLE9=True Love
TTITLE10=Right Now
TTITLE11=Your Smile
EXTD=YEAR: 2001 ID3G: 2
EXTT0=
EXTT1=
EXTT2=
EXTT3=
EXTT4=
EXTT5=
EXTT6=
EXTT7=
EXTT8=
EXTT9=
EXTT10=
EXTT11=
PLAYORDER=
